<svg width="31" height="31" viewBox="0 0 31 31" fill="none" xmlns="http://www.w3.org/2000/svg">
<path d="M15.5 2.58331C13.8037 2.58331 12.1241 2.91741 10.557 3.56654C8.98986 4.21566 7.56594 5.16709 6.36652 6.36652C3.94417 8.78886 2.58331 12.0743 2.58331 15.5C2.58331 21.2091 6.2904 26.0529 11.4183 27.7708C12.0641 27.8741 12.2708 27.4737 12.2708 27.125V24.9421C8.6929 25.7171 7.93081 23.2112 7.93081 23.2112C7.33665 21.7129 6.49706 21.3125 6.49706 21.3125C5.32165 20.5116 6.58748 20.5375 6.58748 20.5375C7.87915 20.6279 8.56373 21.8679 8.56373 21.8679C9.68748 23.8312 11.5862 23.25 12.3225 22.94C12.4387 22.1004 12.7746 21.5321 13.1362 21.2091C10.2687 20.8862 7.25915 19.7754 7.25915 14.8541C7.25915 13.4204 7.74998 12.2708 8.58956 11.3537C8.4604 11.0308 8.00831 9.68748 8.71873 7.94373C8.71873 7.94373 9.80373 7.59498 12.2708 9.26123C13.2912 8.97706 14.4021 8.83498 15.5 8.83498C16.5979 8.83498 17.7087 8.97706 18.7291 9.26123C21.1962 7.59498 22.2812 7.94373 22.2812 7.94373C22.9916 9.68748 22.5396 11.0308 22.4104 11.3537C23.25 12.2708 23.7408 13.4204 23.7408 14.8541C23.7408 19.7883 20.7183 20.8733 17.8379 21.1962C18.3029 21.5966 18.7291 22.3846 18.7291 23.5858V27.125C18.7291 27.4737 18.9358 27.8871 19.5946 27.7708C24.7225 26.04 28.4166 21.2091 28.4166 15.5C28.4166 13.8037 28.0825 12.1241 27.4334 10.557C26.7843 8.98986 25.8329 7.56594 24.6334 6.36652C23.434 5.16709 22.0101 4.21566 20.443 3.56654C18.8759 2.91741 17.1962 2.58331 15.5 2.58331Z" fill="white"/>
</svg>
