<svg width="31" height="31" viewBox="0 0 31 31" fill="none" xmlns="http://www.w3.org/2000/svg">
<path d="M16.8278 2.58331C18.2809 2.58719 19.0185 2.59494 19.6553 2.61302L19.9059 2.62206C20.1952 2.6324 20.4806 2.64531 20.8255 2.66081C22.1999 2.7254 23.1376 2.9424 23.9604 3.26144C24.8129 3.58952 25.5311 4.03385 26.2492 4.75073C26.9063 5.39622 27.4146 6.17734 27.7385 7.03956C28.0576 7.86235 28.2746 8.8001 28.3391 10.1757C28.3546 10.5193 28.3676 10.8048 28.3779 11.0954L28.3856 11.346C28.405 11.9815 28.4128 12.719 28.4154 14.1721L28.4166 15.1357V16.8278C28.4198 17.77 28.4099 18.7121 28.3869 19.654L28.3792 19.9046C28.3689 20.1952 28.3559 20.4806 28.3404 20.8242C28.2759 22.1999 28.0563 23.1363 27.7385 23.9604C27.4146 24.8226 26.9063 25.6037 26.2492 26.2492C25.6037 26.9063 24.8226 27.4146 23.9604 27.7385C23.1376 28.0576 22.1999 28.2746 20.8255 28.3391L19.9059 28.3779L19.6553 28.3856C19.0185 28.4037 18.2809 28.4128 16.8278 28.4154L15.8642 28.4166H14.1734C13.2309 28.42 12.2883 28.4101 11.346 28.3869L11.0954 28.3792C10.7888 28.3676 10.4822 28.3542 10.1757 28.3391C8.8014 28.2746 7.86365 28.0576 7.03956 27.7385C6.1778 27.4144 5.39714 26.9061 4.75202 26.2492C4.09449 25.6039 3.58579 24.8227 3.26144 23.9604C2.9424 23.1376 2.7254 22.1999 2.66082 20.8242L2.62207 19.9046L2.61561 19.654C2.5918 18.7121 2.58103 17.77 2.58332 16.8278V14.1721C2.57974 13.23 2.58921 12.2879 2.61173 11.346L2.62077 11.0954C2.63111 10.8048 2.64402 10.5193 2.65952 10.1757C2.72411 8.8001 2.94111 7.86365 3.26015 7.03956C3.58525 6.17699 4.09485 5.39583 4.75332 4.75073C5.39805 4.09398 6.17827 3.58574 7.03956 3.26144C7.86365 2.9424 8.80011 2.7254 10.1757 2.66081C10.5193 2.64531 10.8061 2.6324 11.0954 2.62206L11.346 2.61431C12.2879 2.59136 13.23 2.58146 14.1721 2.5846L16.8278 2.58331ZM15.5 9.04165C13.7871 9.04165 12.1444 9.72208 10.9333 10.9332C9.72208 12.1444 9.04165 13.7871 9.04165 15.5C9.04165 17.2128 9.72208 18.8555 10.9333 20.0667C12.1444 21.2779 13.7871 21.9583 15.5 21.9583C17.2128 21.9583 18.8555 21.2779 20.0667 20.0667C21.2779 18.8555 21.9583 17.2128 21.9583 15.5C21.9583 13.7871 21.2779 12.1444 20.0667 10.9332C18.8555 9.72208 17.2128 9.04165 15.5 9.04165ZM15.5 11.625C16.0089 11.6249 16.5128 11.725 16.9829 11.9197C17.4531 12.1144 17.8803 12.3997 18.2402 12.7595C18.6001 13.1193 18.8856 13.5464 19.0804 14.0165C19.2752 14.4866 19.3755 14.9905 19.3756 15.4993C19.3757 16.0082 19.2756 16.5121 19.0809 16.9823C18.8862 17.4525 18.6009 17.8797 18.2411 18.2396C17.8814 18.5994 17.4542 18.885 16.9841 19.0798C16.514 19.2746 16.0101 19.3749 15.5013 19.375C14.4736 19.375 13.4879 18.9667 12.7612 18.24C12.0345 17.5133 11.6263 16.5277 11.6263 15.5C11.6263 14.4723 12.0345 13.4866 12.7612 12.7599C13.4879 12.0332 14.4736 11.625 15.5013 11.625M22.2825 7.10415C21.8543 7.10415 21.4436 7.27425 21.1408 7.57705C20.838 7.87984 20.6679 8.29052 20.6679 8.71873C20.6679 9.14694 20.838 9.55762 21.1408 9.86041C21.4436 10.1632 21.8543 10.3333 22.2825 10.3333C22.7107 10.3333 23.1214 10.1632 23.4242 9.86041C23.727 9.55762 23.8971 9.14694 23.8971 8.71873C23.8971 8.29052 23.727 7.87984 23.4242 7.57705C23.1214 7.27425 22.7107 7.10415 22.2825 7.10415Z" fill="white"/>
</svg>
