<svg width="31" height="31" viewBox="0 0 31 31" fill="none" xmlns="http://www.w3.org/2000/svg">
<path fill-rule="evenodd" clip-rule="evenodd" d="M23.25 3.875C24.2777 3.875 25.2633 4.28326 25.99 5.00996C26.7167 5.73666 27.125 6.72229 27.125 7.75V23.25C27.125 24.2777 26.7167 25.2633 25.99 25.99C25.2633 26.7167 24.2777 27.125 23.25 27.125H7.75C6.72229 27.125 5.73666 26.7167 5.00996 25.99C4.28326 25.2633 3.875 24.2777 3.875 23.25V7.75C3.875 6.72229 4.28326 5.73666 5.00996 5.00996C5.73666 4.28326 6.72229 3.875 7.75 3.875H23.25ZM10.3333 12.9167C9.99076 12.9167 9.66222 13.0528 9.41999 13.295C9.17775 13.5372 9.04167 13.8658 9.04167 14.2083V20.6667C9.04167 21.0092 9.17775 21.3378 9.41999 21.58C9.66222 21.8222 9.99076 21.9583 10.3333 21.9583C10.6759 21.9583 11.0044 21.8222 11.2467 21.58C11.4889 21.3378 11.625 21.0092 11.625 20.6667V14.2083C11.625 13.8658 11.4889 13.5372 11.2467 13.295C11.0044 13.0528 10.6759 12.9167 10.3333 12.9167ZM14.2083 11.625C13.8658 11.625 13.5372 11.7611 13.295 12.0033C13.0528 12.2456 12.9167 12.5741 12.9167 12.9167V20.6667C12.9167 21.0092 13.0528 21.3378 13.295 21.58C13.5372 21.8222 13.8658 21.9583 14.2083 21.9583C14.5509 21.9583 14.8794 21.8222 15.1217 21.58C15.3639 21.3378 15.5 21.0092 15.5 20.6667V15.9392C15.894 15.4948 16.5592 14.973 17.2993 14.6565C17.7294 14.4731 18.3765 14.3982 18.826 14.5403C18.9752 14.5781 19.108 14.6633 19.2045 14.7831C19.2717 14.8735 19.375 15.075 19.375 15.5V20.6667C19.375 21.0092 19.5111 21.3378 19.7533 21.58C19.9956 21.8222 20.3241 21.9583 20.6667 21.9583C21.0092 21.9583 21.3378 21.8222 21.58 21.58C21.8222 21.3378 21.9583 21.0092 21.9583 20.6667V15.5C21.9583 14.6346 21.7387 13.8647 21.2815 13.2473C20.8607 12.6875 20.2719 12.2769 19.601 12.0758C18.436 11.7102 17.1456 11.913 16.284 12.2825C16.0082 12.4011 15.7395 12.5357 15.4793 12.6855C15.4252 12.3878 15.2683 12.1187 15.036 11.9249C14.8038 11.7311 14.5108 11.625 14.2083 11.625ZM10.3333 9.04167C9.99076 9.04167 9.66222 9.17775 9.41999 9.41999C9.17775 9.66222 9.04167 9.99076 9.04167 10.3333C9.04167 10.6759 9.17775 11.0044 9.41999 11.2467C9.66222 11.4889 9.99076 11.625 10.3333 11.625C10.6759 11.625 11.0044 11.4889 11.2467 11.2467C11.4889 11.0044 11.625 10.6759 11.625 10.3333C11.625 9.99076 11.4889 9.66222 11.2467 9.41999C11.0044 9.17775 10.6759 9.04167 10.3333 9.04167Z" fill="white"/>
</svg>
