<svg width="107" height="35" viewBox="0 0 107 35" fill="none" xmlns="http://www.w3.org/2000/svg">
<path d="M46.99 18.808C46.822 18.7 46.738 18.544 46.738 18.34C46.738 18.136 46.804 17.95 46.936 17.782C46.888 16.582 46.864 15.316 46.864 13.984C46.936 13.696 47.044 13.486 47.188 13.354C47.344 13.222 47.566 13.138 47.854 13.102C49.438 13.174 51.154 13.21 53.002 13.21C53.458 13.306 53.686 13.504 53.686 13.804C53.686 14.308 53.194 14.602 52.21 14.686C51.946 14.698 51.658 14.704 51.346 14.704H50.176C49.948 14.704 49.318 14.656 48.286 14.56C48.286 16.06 48.31 17.092 48.358 17.656C48.994 17.668 50.218 17.674 52.03 17.674C52.462 17.758 52.678 17.956 52.678 18.268C52.678 18.568 52.504 18.802 52.156 18.97C52.12 18.994 52.054 19.018 51.958 19.042L48.844 18.988C48.652 18.988 48.496 19 48.376 19.024L48.448 22.12C48.448 22.816 48.43 23.314 48.394 23.614L52.57 23.56C52.954 23.62 53.146 23.782 53.146 24.046C53.146 24.226 53.062 24.406 52.894 24.586C52.738 24.766 52.552 24.88 52.336 24.928L47.728 25C47.452 25 47.26 24.952 47.152 24.856C47.044 24.748 46.99 24.574 46.99 24.334C47.038 23.998 47.062 23.458 47.062 22.714V21.454L46.99 18.808ZM57.4909 24.982C57.0829 24.982 56.7049 24.844 56.3569 24.568C56.3569 24.568 56.2789 24.502 56.1229 24.37V29.77C56.0509 30.01 55.9249 30.208 55.7449 30.364C55.5649 30.532 55.3729 30.616 55.1689 30.616C54.8569 30.616 54.7009 30.406 54.7009 29.986V17.44C54.7729 17.128 54.8569 16.906 54.9529 16.774C55.0609 16.642 55.2229 16.576 55.4389 16.576C55.6669 16.576 55.8109 16.63 55.8709 16.738C55.9429 16.834 56.0269 17.11 56.1229 17.566C56.1709 17.326 56.3629 17.104 56.6989 16.9C57.0349 16.696 57.4849 16.594 58.0489 16.594C59.2729 16.594 60.1429 17.038 60.6589 17.926C61.1749 18.814 61.4329 19.864 61.4329 21.076C61.4329 22.276 61.0789 23.23 60.3709 23.938C59.6749 24.634 58.7149 24.982 57.4909 24.982ZM56.1229 19.582V22.93C56.1949 22.966 56.2789 23.026 56.3749 23.11C56.7229 23.422 57.1009 23.578 57.5089 23.578C59.1649 23.578 59.9929 22.726 59.9929 21.022C59.9929 19.57 59.6209 18.652 58.8769 18.268C58.5649 18.1 58.1809 18.016 57.7249 18.016C57.2809 18.076 56.9029 18.274 56.5909 18.61C56.2789 18.934 56.1229 19.258 56.1229 19.582ZM63.5341 13.624C63.7501 13.624 63.9541 13.726 64.1461 13.93C64.3381 14.134 64.4341 14.35 64.4341 14.578C64.4341 14.794 64.3261 15.016 64.1101 15.244C63.9061 15.472 63.6901 15.586 63.4621 15.586C63.2341 15.586 63.0241 15.49 62.8321 15.298C62.6521 15.106 62.5621 14.86 62.5621 14.56C62.5621 13.984 62.8741 13.672 63.4981 13.624C63.5101 13.624 63.5221 13.624 63.5341 13.624ZM64.2901 23.056L64.3081 24.316C64.3081 24.544 64.2181 24.736 64.0381 24.892C63.8581 25.036 63.6661 25.108 63.4621 25.108C63.1621 25.108 63.0061 24.958 62.9941 24.658C62.8381 20.83 62.7601 18.712 62.7601 18.304C62.7601 17.896 62.7781 17.398 62.8141 16.81C62.8381 16.594 62.9761 16.486 63.2281 16.486C63.8641 16.486 64.2241 16.744 64.3081 17.26C64.3441 17.524 64.3621 17.734 64.3621 17.89L64.2901 19.024V23.056ZM66.1195 20.788C66.1195 19.984 66.3295 19.252 66.7495 18.592C67.1815 17.932 67.7275 17.44 68.3875 17.116C69.0475 16.78 69.6895 16.612 70.3135 16.612C70.9375 16.612 71.4355 16.69 71.8075 16.846C72.1915 16.99 72.3835 17.188 72.3835 17.44C72.3835 17.68 72.3115 17.926 72.1675 18.178C72.0355 18.418 71.8555 18.538 71.6275 18.538C71.5435 18.538 71.3095 18.472 70.9255 18.34C70.5535 18.196 70.3135 18.124 70.2055 18.124C69.5095 18.124 68.9155 18.382 68.4235 18.898C67.9315 19.402 67.6855 20.074 67.6855 20.914C67.6855 21.754 67.8175 22.384 68.0815 22.804C68.3575 23.212 68.8255 23.416 69.4855 23.416C69.7495 23.416 70.1995 23.266 70.8355 22.966C71.4835 22.654 71.8855 22.498 72.0415 22.498C72.1975 22.498 72.3235 22.546 72.4195 22.642C72.5155 22.738 72.5635 22.858 72.5635 23.002C72.5635 23.29 72.3775 23.596 72.0055 23.92C71.6455 24.232 71.1955 24.496 70.6555 24.712C70.1155 24.916 69.6295 25.018 69.1975 25.018C68.2375 25.018 67.4815 24.64 66.9295 23.884C66.3895 23.128 66.1195 22.096 66.1195 20.788ZM73.8 16.594L74.7 16.612C74.904 16.612 75.018 16.606 75.042 16.594V12.904C75.054 12.7 75.156 12.526 75.348 12.382C75.54 12.238 75.72 12.166 75.888 12.166C76.056 12.166 76.188 12.22 76.284 12.328C76.392 12.436 76.44 12.604 76.428 12.832C76.416 13.06 76.41 14.308 76.41 16.576L78.516 16.504C78.876 16.504 79.056 16.714 79.056 17.134C79.056 17.446 78.96 17.68 78.768 17.836C78.588 17.992 78.39 18.076 78.174 18.088C77.97 18.1 77.766 18.106 77.562 18.106L76.464 18.088C76.464 18.58 76.512 19.552 76.608 21.004C76.716 22.456 76.8 23.398 76.86 23.83C76.92 24.25 76.932 24.526 76.896 24.658C76.86 24.778 76.794 24.862 76.698 24.91C76.542 24.982 76.332 25.018 76.068 25.018C75.804 25.018 75.648 24.874 75.6 24.586C75.36 23.014 75.198 20.854 75.114 18.106C75.006 18.118 74.592 18.124 73.872 18.124C73.152 18.124 72.792 17.914 72.792 17.494C72.792 16.894 73.128 16.594 73.8 16.594ZM82.1295 16.666C82.7655 16.666 83.3715 16.852 83.9475 17.224C84.5235 17.596 84.8115 18.058 84.8115 18.61C84.8115 19.15 84.5775 19.678 84.1095 20.194C83.6415 20.698 83.0175 21.004 82.2375 21.112C81.9015 21.16 81.3975 21.184 80.7255 21.184C80.8575 22.204 81.1155 22.876 81.4995 23.2C81.6195 23.332 81.7815 23.398 81.9855 23.398C82.7295 23.398 83.3535 23.164 83.8575 22.696C84.3615 22.216 84.7215 21.976 84.9375 21.976C85.0335 21.976 85.1775 22.066 85.3695 22.246C85.5615 22.426 85.6575 22.594 85.6575 22.75C85.6575 23.062 85.2795 23.512 84.5235 24.1C84.1875 24.376 83.7795 24.61 83.2995 24.802C82.8315 24.982 82.3935 25.072 81.9855 25.072C80.9415 25.072 80.1735 24.4 79.6815 23.056C79.3695 22.228 79.2135 21.316 79.2135 20.32C79.2135 19.324 79.4475 18.466 79.9155 17.746C80.3835 17.026 81.1215 16.666 82.1295 16.666ZM82.2195 17.908C81.7635 17.908 81.3735 18.166 81.0495 18.682C80.9295 18.862 80.8155 19.27 80.7075 19.906C82.3875 19.906 83.2275 19.492 83.2275 18.664C83.2275 18.16 82.8915 17.908 82.2195 17.908ZM87.1594 16.594L88.0594 16.612C88.2634 16.612 88.3774 16.606 88.4014 16.594V12.904C88.4134 12.7 88.5154 12.526 88.7074 12.382C88.8994 12.238 89.0794 12.166 89.2474 12.166C89.4154 12.166 89.5474 12.22 89.6434 12.328C89.7514 12.436 89.7994 12.604 89.7874 12.832C89.7754 13.06 89.7694 14.308 89.7694 16.576L91.8754 16.504C92.2354 16.504 92.4154 16.714 92.4154 17.134C92.4154 17.446 92.3194 17.68 92.1274 17.836C91.9474 17.992 91.7494 18.076 91.5334 18.088C91.3294 18.1 91.1254 18.106 90.9214 18.106L89.8234 18.088C89.8234 18.58 89.8714 19.552 89.9674 21.004C90.0754 22.456 90.1594 23.398 90.2194 23.83C90.2794 24.25 90.2914 24.526 90.2554 24.658C90.2194 24.778 90.1534 24.862 90.0574 24.91C89.9014 24.982 89.6914 25.018 89.4274 25.018C89.1634 25.018 89.0074 24.874 88.9594 24.586C88.7194 23.014 88.5574 20.854 88.4734 18.106C88.3654 18.118 87.9514 18.124 87.2314 18.124C86.5114 18.124 86.1514 17.914 86.1514 17.494C86.1514 16.894 86.4874 16.594 87.1594 16.594ZM92.8609 17.296C92.9089 17.092 93.0109 16.924 93.1669 16.792C93.3229 16.648 93.4789 16.576 93.6349 16.576C93.8029 16.576 93.9289 16.606 94.0129 16.666C94.1089 16.726 94.1629 16.78 94.1749 16.828C94.1989 16.876 94.2229 16.96 94.2469 17.08C94.1749 18.016 94.1389 18.862 94.1389 19.618C94.1389 20.362 94.2289 21.22 94.4089 22.192C94.5889 23.152 94.7869 23.632 95.0029 23.632C95.3269 23.632 95.7349 23.452 96.2269 23.092C96.7309 22.732 97.0909 22.354 97.3069 21.958C97.1629 20.23 97.0909 18.748 97.0909 17.512C97.0909 17.26 97.1689 17.044 97.3249 16.864C97.4929 16.684 97.6909 16.594 97.9189 16.594C98.2909 16.594 98.4769 16.846 98.4769 17.35C98.4769 18.202 98.5369 19.468 98.6569 21.148C98.7889 22.828 98.9209 23.896 99.0529 24.352C99.0769 24.448 99.0889 24.562 99.0889 24.694C99.0889 24.814 99.0049 24.928 98.8369 25.036C98.6809 25.156 98.4709 25.216 98.2069 25.216C97.9549 25.216 97.7869 25.072 97.7029 24.784C97.6789 24.544 97.6189 24.184 97.5229 23.704C96.6829 24.58 95.8369 25.018 94.9849 25.018C94.5889 25.018 94.2349 24.868 93.9229 24.568C93.6109 24.268 93.3649 23.86 93.1849 23.344C92.8729 22.348 92.7169 21.412 92.7169 20.536C92.7169 19.66 92.7649 18.58 92.8609 17.296ZM100.41 18.88C100.41 18.172 100.662 17.608 101.166 17.188C101.67 16.768 102.252 16.558 102.912 16.558C103.584 16.558 104.226 16.678 104.838 16.918C105.45 17.158 105.756 17.476 105.756 17.872C105.756 18.076 105.678 18.238 105.522 18.358C105.366 18.478 105.228 18.538 105.108 18.538C105 18.538 104.91 18.538 104.838 18.538C104.778 18.526 104.538 18.412 104.118 18.196C103.71 17.98 103.332 17.872 102.984 17.872C102.636 17.872 102.336 17.962 102.084 18.142C101.844 18.31 101.724 18.562 101.724 18.898C101.724 19.234 101.862 19.498 102.138 19.69C102.426 19.882 102.924 20.05 103.632 20.194C104.34 20.326 104.88 20.518 105.252 20.77C105.636 21.022 105.828 21.49 105.828 22.174C105.828 23.17 105.564 23.878 105.036 24.298C104.52 24.706 103.89 24.91 103.146 24.91C102.402 24.91 101.766 24.808 101.238 24.604C100.722 24.4 100.464 24.094 100.464 23.686C100.464 23.218 100.698 22.984 101.166 22.984C101.286 22.984 101.55 23.068 101.958 23.236C102.366 23.404 102.768 23.488 103.164 23.488C103.572 23.488 103.878 23.362 104.082 23.11C104.298 22.846 104.406 22.546 104.406 22.21C104.406 21.874 104.268 21.634 103.992 21.49C103.716 21.334 103.296 21.208 102.732 21.112C102.168 21.016 101.754 20.914 101.49 20.806C100.77 20.518 100.41 19.876 100.41 18.88Z" fill="white"/>
<rect width="35" height="35" rx="3" fill="#4B5563"/>
<path d="M13.494 24V12.228H20.586V13.992H15.582V16.998H19.812V18.762H15.582V22.236H20.766V24H13.494Z" fill="white"/>
</svg>
